:FULLY-SPECIFIED
:FORCE-ALL-JOINTS-BE-3DOF
:DEGREES
510
root 5.92724 16.1739 -5.21864 -175.075 80.4836 -179.821
lfemur -24.8639 -16.1923 -22.5428
ltibia 53.9372 0 0
lfoot -26.563 -4.42067 0
ltoes 7.40288 0 0
rfemur -58.2879 7.04683 4.23546
rtibia 59.2393 0 0
rfoot 9.90956 9.85486 0
rtoes -19.9515 0 0
lowerback 8.9462 0.16227 -0.561158
upperback 1.65791 0.415146 3.10721
thorax -3.32742 0.279742 3.4933
lowerneck -8.58832 -12.2944 -3.91544
upperneck 11.7092 -16.3677 2.66671
head 5.47554 -7.96642 0.187423
lclavicle -2.18623e-14 1.48321e-14 0
lhumerus -47.1816 -34.183 117.873
lradius 57.4332 0 0
lwrist 7.49658 0 0
lhand 4.5886 -0.959948 0
lfingers 7.12502 0 0
lthumb 29.9492 26.3431 0
rclavicle -2.18623e-14 1.48321e-14 0
rhumerus -17.8602 43.2985 -82.1619
rradius 114.877 0 0
rwrist -4.26383 0 0
rhand 6.11965 -12.4969 0
rfingers 7.12502 0 0
rthumb 31.4104 -759.544 0
511
root 5.98942 16.1236 -5.16354 -176.364 79.2634 -181.05
lfemur -25.0623 -15.596 -22.6055
ltibia 55.0104 0 0
lfoot -26.7514 -3.7246 0
ltoes 6.37398 0 0
rfemur -57.7896 6.92707 3.60762
rtibia 57.8619 0 0
rfoot 10.274 10.0282 0
rtoes -20.9951 0 0
lowerback 9.1781 0.219334 -0.41405
upperback 1.83187 0.536784 3.35411
thorax -3.28556 0.347639 3.65392
lowerneck -8.46315 -12.5557 -4.11969
upperneck 11.8936 -16.7165 2.78496
head 5.55512 -8.13144 0.216924
lclavicle -2.49613e-14 1.47986e-14 0
lhumerus -46.9442 -33.9704 117.823
lradius 57.6752 0 0
lwrist 8.04966 0 0
lhand 3.43925 -1.36922 0
lfingers 7.12502 0 0
lthumb 28.8469 26.0733 0
rclavicle -2.49613e-14 1.47986e-14 0
rhumerus -15.5134 41.5289 -81.5384
rradius 116.613 0 0
rwrist -7.19807 0 0
rhand 4.75436 -12.927 0
rfingers 7.12502 0 0
rthumb 30.1002 -760.129 0
512
root 6.05161 16.0732 -5.10844 -177.254 77.9309 -181.89
lfemur -25.2975 -14.9407 -22.6743
ltibia 56.136 0 0
lfoot -26.9391 -2.97843 0
ltoes 5.30666 0 0
rfemur -57.2077 6.77822 2.95422
rtibia 56.4592 0 0
rfoot 10.683 10.1988 0
rtoes -22.1015 0 0
lowerback 9.40923 0.27867 -0.255336
upperback 2.01253 0.664019 3.61055
thorax -3.23676 0.418631 3.81723
lowerneck -8.32893 -12.8225 -4.328
upperneck 12.0712 -17.0729 2.90941
head 5.63354 -8.29997 0.24834
lclavicle -2.81886e-14 1.47082e-14 0
lhumerus -46.6969 -33.7298 117.749
lradius 57.9296 0 0
lwrist 8.63442 0 0
lhand 2.19875 -1.80645 0
lfingers 7.12502 0 0
lthumb 27.6573 25.7877 0
rclavicle -2.81886e-14 1.47082e-14 0
rhumerus -13.0991 39.5503 -80.8951
rradius 118.333 0 0
rwrist -10.2623 0 0
rhand 3.21736 -13.4173 0
rfingers 7.12502 0 0
rthumb 28.6252 -760.791 0
513
root 6.11379 16.0228 -5.05333 -177.795 76.5045 -182.387
lfemur -25.5645 -14.2372 -22.7462
ltibia 57.3054 0 0
lfoot -27.1275 -2.1967 0
ltoes 4.21215 0 0
rfemur -56.5559 6.60212 2.28235
rtibia 55.0471 0 0
rfoot 11.1229 10.3638 0
rtoes -23.2575 0 0
lowerback 9.63874 0.339598 -0.0873547
upperback 2.19871 0.795421 3.87401
thorax -3.18167 0.49195 3.98211
lowerneck -8.18651 -13.0925 -4.53859
upperneck 12.2406 -17.4342 3.03954
head 5.71009 -8.47069 0.281633
lclavicle -3.14755e-14 1.45673e-14 0
lhumerus -46.4425 -33.4617 117.652
lradius 58.1923 0 0
lwrist 9.24713 0 0
lhand 0.882918 -2.26478 0
lfingers 7.12502 0 0
lthumb 26.3955 25.491 0
rclavicle -3.14755e-14 1.45673e-14 0
rhumerus -10.6403 37.4014 -80.2412
rradius 120.029 0 0
rwrist -13.4236 0 0
rhand 1.53629 -13.958 0
rfingers 7.12502 0 0
rthumb 27.0119 -761.519 0
514
root 6.17598 15.9725 -4.99823 -178.033 75.0025 -182.587
lfemur -25.8584 -13.4966 -22.8183
ltibia 58.5101 0 0
lfoot -27.3181 -1.39394 0
ltoes 3.1017 0 0
rfemur -55.8482 6.40061 1.59908
rtibia 53.6413 0 0
rfoot 11.5801 10.5201 0
rtoes -24.4501 0 0
lowerback 9.86575 0.40144 0.0875564
upperback 2.38921 0.929559 4.14198
thorax -3.12091 0.566828 4.14743
lowerneck -8.03672 -13.3637 -4.74966
upperneck 12.4007 -17.7975 3.17486
head 5.78405 -8.6423 0.316767
lclavicle -3.47538e-14 1.43826e-14 0
lhumerus -46.1842 -33.1671 117.531
lradius 58.4592 0 0
lwrist 9.88406 0 0
lhand -0.492461 -2.73736 0
lfingers 7.12502 0 0
lthumb 25.0767 25.1876 0
rclavicle -3.47538e-14 1.43826e-14 0
rhumerus -8.15999 35.1209 -79.586
rradius 121.694 0 0
rwrist -16.6489 0 0
rhand -0.26119 -14.5393 0
rfingers 7.12502 0 0
rthumb 25.2868 -762.299 0
515
root 6.23816 15.9221 -4.94313 -178.016 73.4431 -182.538
lfemur -26.1743 -12.7296 -22.8876
ltibia 59.7419 0 0
lfoot -27.5122 -0.584675 0
ltoes 1.98656 0 0
rfemur -55.0984 6.17554 0.911501
rtibia 52.2578 0 0
rfoot 12.041 10.6647 0
rtoes -25.6662 0 0
lowerback 10.0894 0.463516 0.267059
upperback 2.58284 1.065 4.41194
thorax -3.05512 0.642496 4.31207
lowerneck -7.88038 -13.634 -4.95942
upperneck 12.5501 -18.1601 3.31486
head 5.85472 -8.81349 0.353704
lclavicle -3.79549e-14 1.41605e-14 0
lhumerus -45.925 -32.8467 117.388
lradius 58.7261 0 0
lwrist 10.5415 0 0
lhand -1.91158 -3.21735 0
lfingers 7.12502 0 0
lthumb 23.7159 24.8821 0
rclavicle -3.79549e-14 1.41605e-14 0
rhumerus -5.68125 32.7475 -78.9388
rradius 123.321 0 0
rwrist -19.9051 0 0
rhand -2.14743 -15.1515 0
rfingers 7.12502 0 0
rthumb 23.4764 -763.118 0
516
root 6.30035 15.8717 -4.88802 -177.792 71.8449 -182.284
lfemur -26.5073 -11.9473 -22.9511
ltibia 60.9921 0 0
lfoot -27.7111 0.21656 0
ltoes 0.877965 0 0
rfemur -54.3204 5.92875 0.226694
rtibia 50.9124 0 0
rfoot 12.492 10.7944 0
rtoes -26.8928 0 0
lowerback 10.3089 0.525146 0.448815
upperback 2.7784 1.20031 4.68136
thorax -2.98494 0.718187 4.47491
lowerneck -7.71833 -13.9013 -5.16608
upperneck 12.6878 -18.5191 3.45904
head 5.92138 -8.98296 0.392407
lclavicle -4.10105e-14 1.39077e-14 0
lhumerus -45.6679 -32.5013 117.224
lradius 58.9889 0 0
lwrist 11.2156 0 0
lhand -3.35865 -3.69789 0
lfingers 7.12502 0 0
lthumb 22.3283 24.5793 0
rclavicle -4.10105e-14 1.39077e-14 0
rhumerus -3.2271 30.3198 -78.309
rradius 124.903 0 0
rwrist -23.1593 0 0
rhand -4.09478 -15.7849 0
rfingers 7.12502 0 0
rthumb 21.6072 -763.965 0
517
root 6.36253 15.8213 -4.83292 -177.408 70.226 -181.873
lfemur -26.8524 -11.1604 -23.0059
ltibia 62.2525 0 0
lfoot -27.9164 0.995237 0
ltoes -0.212837 0 0
rfemur -53.5282 5.66209 -0.44826
rtibia 49.6207 0 0
rfoot 12.9193 10.9063 0
rtoes -28.1167 0 0
lowerback 10.5232 0.58565 0.630487
upperback 2.9747 1.33407 4.94774
thorax -2.911 0.793132 4.63482
lowerneck -7.5514 -14.1633 -5.36783
upperneck 12.8125 -18.8717 3.6069
head 5.98334 -9.1494 0.432838
lclavicle -4.3852e-14 1.36308e-14 0
lhumerus -45.4161 -32.1315 117.039
lradius 59.2433 0 0
lwrist 11.9029 0 0
lhand -4.81786 -4.17214 0
lfingers 7.12502 0 0
lthumb 20.9291 24.2835 0
rclavicle -4.3852e-14 1.36308e-14 0
rhumerus -0.820577 27.8765 -77.7057
rradius 126.432 0 0
rwrist -26.3783 0 0
rhand -6.07558 -16.4298 0
rfingers 7.12502 0 0
rthumb 19.7059 -764.824 0
518
root 6.42472 15.771 -4.77782 -176.911 68.6048 -181.351
lfemur -27.2048 -10.38 -23.0491
ltibia 63.5144 0 0
lfoot -28.1293 1.73683 0
ltoes -1.2746 0 0
rfemur -52.7355 5.37738 -1.10628
rtibia 48.3987 0 0
rfoot 13.3094 10.9973 0
rtoes -29.3248 0 0
lowerback 10.7317 0.644349 0.809737
upperback 3.17054 1.46484 5.20855
thorax -2.83393 0.866563 4.79067
lowerneck -7.38042 -14.418 -5.56289
upperneck 12.9229 -19.2151 3.75792
head 6.03987 -9.31151 0.474961
lclavicle -4.64111e-14 1.33362e-14 0
lhumerus -45.1726 -31.7383 116.834
lradius 59.4852 0 0
lwrist 12.5994 0 0
lhand -6.27341 -4.63325 0
lfingers 7.12502 0 0
lthumb 19.5333 23.9995 0
rclavicle -4.64111e-14 1.33362e-14 0
rhumerus 1.51528 25.4563 -77.1383
rradius 127.903 0 0
rwrist -29.5293 0 0
rhand -8.06218 -17.0763 0
rfingers 7.12502 0 0
rthumb 17.799 -765.685 0
519
root 6.4869 15.7206 -4.72271 -176.35 66.9996 -180.764
lfemur -27.5595 -9.61687 -23.0776
ltibia 64.7696 0 0
lfoot -28.3512 2.4268 0
ltoes -2.29609 0 0
rfemur -51.9562 5.07648 -1.74028
rtibia 47.2622 0 0
rfoot 13.6487 11.0644 0
rtoes -30.5042 0 0
lowerback 10.9334 0.700564 0.984226
upperback 3.36474 1.59118 5.46127
thorax -2.75437 0.937711 4.94134
lowerneck -7.20622 -14.6633 -5.74946
upperneck 13.0178 -19.5466 3.91162
head 6.09027 -9.46798 0.518738
lclavicle -4.86193e-14 1.30305e-14 0
lhumerus -44.9404 -31.3223 116.609
lradius 59.7105 0 0
lwrist 13.3014 0 0
lhand -7.70951 -5.07436 0
lfingers 7.12502 0 0
lthumb 18.1561 23.7319 0
rclavicle -4.86193e-14 1.30305e-14 0
rhumerus 3.75745 23.0978 -76.616
rradius 129.306 0 0
rwrist -32.5792 0 0
rhand -10.0269 -17.7148 0
rfingers 7.12502 0 0
rthumb 15.9129 -766.533 0
520
root 6.54909 15.6702 -4.66761 -175.772 65.4289 -180.157
lfemur -27.9116 -8.88196 -23.0885
ltibia 66.0095 0 0
lfoot -28.5836 3.05063 0
ltoes -3.26605 0 0
rfemur -51.2043 4.76123 -2.34318
rtibia 46.2269 0 0
rfoot 13.9235 11.1045 0
rtoes -31.6416 0 0
lowerback 11.1274 0.753614 1.15162
upperback 3.5561 1.71168 5.7034
thorax -2.67295 1.00581 5.08571
lowerneck -7.02964 -14.8971 -5.92575
upperneck 13.0961 -19.8633 4.06749
head 6.13383 -9.6175 0.564132
lclavicle -5.04082e-14 1.27203e-14 0
lhumerus -44.7226 -30.8843 116.366
lradius 59.9151 0 0
lwrist 14.0053 0 0
lhand -9.11035 -5.48863 0
lfingers 7.12502 0 0
lthumb 16.8125 23.4851 0
rclavicle -5.04082e-14 1.27203e-14 0
rhumerus 5.88289 20.8398 -76.1483
rradius 130.636 0 0
rwrist -35.4949 0 0
rhand -11.9422 -18.3355 0
rfingers 7.12502 0 0
rthumb 14.0742 -767.357 0
521
root 6.61127 15.6199 -4.61251 -175.225 63.9107 -179.578
lfemur -28.2561 -8.18616 -23.0789
ltibia 67.2258 0 0
lfoot -28.8279 3.59377 0
ltoes -4.17324 0 0
rfemur -50.4936 4.43347 -2.9079
rtibia 45.3088 0 0
rfoot 14.1201 11.1145 0
rtoes -32.724 0 0
lowerback 11.3129 0.80282 1.30957
upperback 3.74343 1.82489 5.9324
thorax -2.59031 1.07009 5.22265
lowerneck -6.8515 -15.1172 -6.08996
upperneck 13.1564 -20.1624 4.22502
head 6.16984 -9.75877 0.611106
lclavicle -5.17094e-14 1.24122e-14 0
lhumerus -44.5222 -30.4251 116.104
lradius 60.0946 0 0
lwrist 14.7073 0 0
lhand -10.4601 -5.86921 0
lfingers 7.12502 0 0
lthumb 15.5178 23.2638 0
rclavicle -5.17094e-14 1.24122e-14 0
rhumerus 7.86856 18.7209 -75.7443
rradius 131.886 0 0
rwrist -38.2435 0 0
rhand -13.7803 -18.9287 0
rfingers 7.12502 0 0
rthumb 12.3094 -768.142 0
522
root 6.67346 15.5695 -4.5574 -174.755 62.4636 -179.073
lfemur -28.5883 -7.54038 -23.0458
ltibia 68.4099 0 0
lfoot -29.0853 4.04172 0
ltoes -5.00642 0 0
rfemur -49.8379 4.09505 -3.42735
rtibia 44.5235 0 0
rfoot 14.2251 11.0915 0
rtoes -33.7384 0 0
lowerback 11.489 0.847503 1.45575
upperback 3.92553 1.92938 6.14576
thorax -2.50708 1.12978 5.35104
lowerneck -6.67264 -15.3215 -6.24029
upperneck 13.1976 -20.4411 4.3837
head 6.19759 -9.89048 0.659621
lclavicle -5.24543e-14 1.21126e-14 0
lhumerus -44.3424 -29.9455 115.825
lradius 60.2451 0 0
lwrist 15.4037 0 0
lhand -11.7431 -6.20925 0
lfingers 7.12502 0 0
lthumb 14.2871 23.0726 0
rclavicle -5.24543e-14 1.21126e-14 0
rhumerus 9.69144 16.7798 -75.4134
rradius 133.048 0 0
rwrist -40.7919 0 0
rhand -15.5136 -19.4846 0
rfingers 7.12502 0 0
rthumb 10.6451 -768.877 0
